<svg xmlns="http://www.w3.org/2000/svg" width="100" height="100" viewBox="0 0 20 20"><path fill="#fff" d="M19.7857 10.001383c0 5.404-4.383 9.785-9.786 9.785-5.406 0-9.786-4.381-9.786-9.785 0-5.405 4.38-9.786 9.786-9.786 5.403 0 9.786 4.381 9.786 9.786"/><path fill="#d52528" d="M14.2033 4.102483c2.981.919 5.147 3.694 5.147 6.976 0 .479-.046.947-.133 1.399l-.011.063c-.228 1.287-.75 2.474-1.495 3.486l-.014.016c1.309-1.665 2.089-3.765 2.089-6.045 0-5.408-4.384-9.792-9.792-9.792-2.463 0-4.713.911-6.435 2.412l-.021.02c-1.356 1.243-2.205 3.032-2.205 5.015 0 .823.146 1.611.412 2.341l.014.033c.68 1.494 2.184 2.53 3.932 2.53 2.385 0 4.32-1.932 4.32-4.317l-.013-1.858c0-.855.477-1.599 1.178-1.979l.007-.006c.55-.302 1.18-.474 1.85-.474.407 0 .798.062 1.166.18z"/><path fill="#233979" d="M5.797 15.897583c-2.981-.919-5.147-3.694-5.147-6.976 0-.479.046-.947.133-1.399l.011-.063c.228-1.287.75-2.474 1.495-3.486l.014-.016c-1.309 1.665-2.089 3.765-2.089 6.045 0 5.408 4.384 9.792 9.792 9.792 2.463 0 4.713-.911 6.435-2.412l.021-.02c1.356-1.243 2.205-3.032 2.205-5.015 0-.823-.146-1.611-.412-2.341l-.014-.033c-.68-1.494-2.184-2.53-3.932-2.53-2.385 0-4.32 1.932-4.32 4.317l.013 1.858c0 .855-.477 1.599-1.178 1.979l-.007.006c-.55.302-1.18.474-1.85.474-.407 0-.798-.062-1.166-.18z"/></svg>